# xmcd CD database file generated by OrangeCD 4.2
#
# Track frame offsets:
#    150
#    24422
#    37077
#    51242
#    78817
#    92900
#    110727
#    127675
#    141465
#    161842
#    181947
#    189605
#    250522
#
# Disc length: 3442 seconds
#
# Revision: 5
# Processed by: cddbd v1.5.1PL2 Copyright (c) Steve Scherf et al.
# Submitted via: OrangeCD 4.2
#
DISCID=ac0d700d
DTITLE=Stevie Ray Vaughan and Double Trouble - Soul To Soul (Remastered w/bo
DTITLE=nus trax)
DYEAR=1900
DGENRE=Blues
TTITLE0=Say What!
TTITLE1=Lookin' Out The Window
TTITLE2=Look At Little Sister
TTITLE3=Ain't Gone 'N' Give Up On Love
TTITLE4=Gone Home
TTITLE5=Change It
TTITLE6=You'll Be Mine
TTITLE7=Empty Arms
TTITLE8=Come On (Part III)
TTITLE9=Life Without You
TTITLE10=SRV Speaks
TTITLE11=Little Wing/Third Stone From The Sun
TTITLE12=Slip Slidin' Slim
EXTD=
EXTT0=
EXTT1=
EXTT2=
EXTT3=
EXTT4=
EXTT5=
EXTT6=
EXTT7=
EXTT8=
EXTT9=
EXTT10=
EXTT11=
EXTT12=
PLAYORDER=
